<?xml version="1.0" standalone="no"?>
<!DOCTYPE svg PUBLIC "-//W3C//DTD SVG 20010904//EN"
 "http://www.w3.org/TR/2001/REC-SVG-20010904/DTD/svg10.dtd">
<svg version="1.0" xmlns="http://www.w3.org/2000/svg"
 width="400.000000pt" height="389.000000pt" viewBox="0 0 400.000000 389.000000"
 preserveAspectRatio="xMidYMid meet">

<g transform="translate(0.000000,389.000000) scale(0.100000,-0.100000)"
fill="#000000" stroke="none">
<path d="M1066 3387 c-56 -53 -60 -114 -10 -164 22 -22 32 -25 72 -20 61 7 92
41 92 100 -1 48 -12 66 -60 96 -46 28 -52 27 -94 -12z"/>
<path d="M1324 3401 c-62 -38 -78 -126 -30 -169 68 -62 176 -17 176 73 0 37
-5 47 -40 79 -46 41 -62 44 -106 17z"/>
<path d="M1590 3409 c-50 -20 -70 -49 -70 -100 0 -84 65 -134 136 -104 41 17
64 51 64 94 0 26 -9 43 -44 77 -47 47 -48 48 -86 33z"/>
<path d="M574 3391 c-42 -25 -61 -80 -44 -121 13 -31 65 -70 95 -70 54 0 112
75 100 129 -14 66 -94 98 -151 62z"/>
<path d="M834 3400 c-51 -20 -69 -92 -39 -150 47 -90 175 -51 175 54 -1 44
-11 62 -50 89 -27 18 -53 21 -86 7z"/>
<path d="M1810 3397 c-58 -45 -67 -122 -21 -168 64 -64 181 -11 181 82 0 47
-56 99 -106 99 -22 0 -46 -6 -54 -13z"/>
<path d="M311 3374 c-73 -61 -7 -193 85 -170 15 4 40 21 56 38 86 92 -44 214
-141 132z"/>
<path d="M309 3131 c-23 -23 -29 -38 -29 -71 0 -55 14 -79 57 -96 45 -19 94
-5 123 36 37 52 20 114 -40 145 -44 23 -78 19 -111 -14z"/>
<path d="M559 3132 c-24 -22 -31 -36 -31 -65 0 -119 134 -159 185 -55 49 101
-71 194 -154 120z"/>
<path d="M1789 3131 c-52 -52 -30 -135 44 -166 77 -32 157 42 128 119 -30 77
-117 101 -172 47z"/>
<path d="M2049 3132 c-23 -21 -32 -39 -36 -72 -4 -39 -1 -49 21 -71 44 -44
105 -45 150 -4 50 46 41 120 -18 156 -44 27 -80 24 -117 -9z"/>
<path d="M345 2910 c-28 -11 -61 -50 -68 -79 -13 -54 44 -121 103 -121 29 0
77 27 90 49 28 52 -3 121 -66 147 -19 8 -35 14 -36 13 -2 0 -12 -4 -23 -9z"/>
<path d="M589 2900 c-33 -17 -69 -69 -69 -100 0 -24 30 -67 55 -78 69 -32 141
1 152 70 7 45 -12 79 -60 108 -38 24 -33 24 -78 0z"/>
<path d="M2036 2879 c-48 -57 -29 -136 40 -165 80 -33 167 56 134 137 -16 37
-56 59 -109 59 -32 0 -44 -6 -65 -31z"/>
<path d="M2285 2885 c-28 -27 -34 -85 -14 -128 13 -28 58 -57 89 -57 88 0 134
117 71 181 -40 39 -109 41 -146 4z"/>
<path d="M310 2632 c-64 -64 -22 -172 67 -172 130 1 140 183 11 197 -42 5 -50
3 -78 -25z"/>
<path d="M554 2626 c-54 -54 -39 -122 36 -161 43 -22 69 -18 100 15 52 56 47
136 -11 166 -48 24 -87 18 -125 -20z"/>
<path d="M2063 2630 c-39 -24 -53 -48 -53 -95 0 -73 72 -106 154 -71 46 19 63
69 43 119 -28 65 -84 84 -144 47z"/>
<path d="M3043 2630 c-56 -34 -67 -79 -33 -135 26 -42 79 -69 112 -56 32 13
67 52 78 90 26 90 -72 153 -157 101z"/>
<path d="M3277 2630 c-38 -30 -52 -81 -33 -119 39 -75 120 -94 178 -42 27 24
33 36 33 71 0 36 -6 47 -38 76 -44 41 -99 46 -140 14z"/>
<path d="M3525 2620 c-22 -23 -28 -39 -29 -75 -1 -41 3 -50 32 -76 60 -54 147
-31 172 46 10 30 9 41 -10 79 -22 46 -39 56 -101 56 -26 0 -42 -8 -64 -30z"/>
<path d="M1304 2625 c-34 -23 -48 -68 -34 -109 33 -100 157 -100 190 -1 18 53
4 94 -36 111 -43 18 -94 18 -120 -1z"/>
<path d="M1543 2622 c-28 -22 -45 -66 -37 -98 10 -39 69 -84 110 -84 50 0 104
53 104 102 0 32 -21 74 -44 90 -21 15 -110 8 -133 -10z"/>
<path d="M1788 2610 c-27 -28 -30 -36 -25 -73 8 -56 52 -97 105 -97 67 0 114
69 92 135 -15 46 -44 65 -98 65 -35 0 -49 -6 -74 -30z"/>
<path d="M2279 2619 c-18 -18 -21 -30 -17 -77 4 -45 10 -60 32 -79 38 -32 95
-31 134 2 38 32 48 72 28 118 -18 44 -41 57 -105 57 -39 0 -56 -5 -72 -21z"/>
<path d="M2538 2629 c-45 -26 -39 -131 9 -169 40 -32 88 -27 129 14 52 52 46
123 -13 154 -26 15 -102 15 -125 1z"/>
<path d="M2795 2628 c-33 -19 -44 -41 -44 -83 -1 -83 82 -130 159 -90 54 28
65 136 17 170 -25 18 -103 19 -132 3z"/>
<path d="M328 2403 c-83 -53 -51 -193 45 -193 60 0 120 68 109 125 -11 61
-102 101 -154 68z"/>
<path d="M573 2400 c-66 -40 -71 -94 -14 -151 45 -45 83 -51 124 -18 61 47 57
143 -8 173 -43 21 -63 20 -102 -4z"/>
<path d="M1059 2381 c-24 -25 -29 -38 -29 -78 0 -64 27 -93 87 -93 47 0 84 25
103 69 40 97 -86 176 -161 102z"/>
<path d="M2064 2376 c-28 -28 -34 -42 -34 -75 0 -59 33 -91 93 -91 102 0 142
108 66 179 -36 33 -84 28 -125 -13z"/>
<path d="M1324 2390 c-32 -13 -64 -59 -64 -92 0 -21 11 -41 33 -63 39 -39 79
-52 113 -36 29 13 64 67 64 98 0 74 -75 122 -146 93z"/>
<path d="M1558 2384 c-58 -31 -66 -104 -17 -153 67 -68 179 -24 179 69 0 82
-86 126 -162 84z"/>
<path d="M1789 2371 c-78 -79 21 -218 119 -167 32 16 62 61 62 91 0 31 -31 82
-56 94 -46 20 -93 14 -125 -18z"/>
<path d="M2289 2371 c-23 -23 -29 -38 -29 -71 0 -35 6 -48 35 -77 31 -31 40
-35 72 -30 40 7 68 29 90 71 18 34 11 65 -23 105 -22 26 -33 31 -71 31 -36 0
-50 -6 -74 -29z"/>
<path d="M2553 2389 c-12 -7 -29 -27 -39 -47 -13 -28 -14 -42 -5 -72 16 -53
44 -75 98 -75 38 0 49 5 74 33 39 43 41 107 5 141 -28 27 -99 37 -133 20z"/>
<path d="M2804 2390 c-57 -23 -72 -107 -29 -158 73 -87 209 -10 176 100 -18
57 -84 84 -147 58z"/>
<path d="M3025 2367 c-23 -23 -35 -44 -35 -62 0 -65 70 -123 135 -111 51 10
70 39 70 107 0 72 -15 90 -84 97 -47 4 -53 2 -86 -31z"/>
<path d="M3301 2382 c-47 -23 -75 -64 -67 -95 8 -34 57 -84 89 -93 38 -9 75 3
102 32 29 32 37 71 20 110 -25 62 -80 79 -144 46z"/>
<path d="M309 2141 c-40 -41 -41 -98 -1 -142 24 -26 36 -32 72 -32 36 0 48 6
72 32 41 45 38 93 -6 137 -45 45 -95 47 -137 5z"/>
<path d="M560 2143 c-40 -37 -48 -86 -21 -130 26 -41 80 -58 125 -39 42 17 57
38 63 85 5 36 2 44 -30 76 -45 45 -92 48 -137 8z"/>
<path d="M1789 2141 c-77 -77 12 -205 118 -170 57 18 82 100 45 144 -52 63
-116 73 -163 26z"/>
<path d="M1563 2146 c-81 -37 -66 -150 23 -175 20 -6 45 -6 57 -1 63 24 96
114 60 159 -24 29 -94 38 -140 17z"/>
<path d="M2814 2146 c-17 -8 -39 -24 -48 -37 -18 -26 -21 -81 -6 -110 15 -26
62 -49 105 -49 111 0 120 186 10 205 -16 3 -44 -1 -61 -9z"/>
<path d="M3036 2130 c-18 -17 -37 -42 -40 -56 -10 -39 11 -92 44 -109 30 -16
107 -20 126 -7 33 21 45 107 23 155 -24 54 -101 62 -153 17z"/>
<path d="M334 1908 c-44 -34 -53 -50 -54 -88 0 -46 21 -76 66 -90 70 -24 134
16 134 83 0 32 -7 46 -39 78 -44 45 -67 48 -107 17z"/>
<path d="M1078 1914 c-30 -16 -58 -61 -58 -93 0 -52 53 -101 109 -101 51 0
101 48 101 97 0 29 -37 81 -69 98 -37 18 -48 18 -83 -1z"/>
<path d="M1318 1905 c-69 -46 -71 -125 -6 -165 39 -24 69 -25 108 -5 36 19 50
43 50 87 -1 37 -17 63 -57 90 -37 24 -51 23 -95 -7z"/>
<path d="M1573 1915 c-85 -37 -81 -160 6 -186 50 -15 106 -4 126 24 35 50 8
139 -50 163 -41 17 -42 17 -82 -1z"/>
<path d="M560 1893 c-19 -18 -33 -41 -36 -64 -5 -31 -1 -42 24 -70 26 -29 37
-34 77 -34 40 0 51 5 76 33 40 45 39 84 -5 128 -44 44 -92 46 -136 7z"/>
<path d="M799 1894 c-18 -20 -24 -37 -24 -74 0 -77 49 -111 129 -89 45 12 66
42 66 95 0 35 -5 47 -31 68 -43 36 -106 36 -140 0z"/>
<path d="M2543 1895 c-55 -39 -50 -151 9 -181 69 -36 158 15 158 89 0 55 -51
107 -107 107 -21 0 -48 -7 -60 -15z"/>
<path d="M2801 1897 c-32 -19 -50 -54 -51 -98 0 -68 89 -118 159 -89 57 23 64
127 12 174 -26 23 -90 30 -120 13z"/>
<path d="M309 1641 c-62 -63 -20 -171 66 -171 52 0 105 53 105 105 0 53 -44
95 -100 95 -33 0 -48 -6 -71 -29z"/>
<path d="M554 1636 c-81 -81 3 -196 113 -155 47 18 65 51 59 104 -10 87 -107
116 -172 51z"/>
<path d="M2056 1640 c-41 -37 -61 -86 -47 -121 26 -69 115 -88 169 -36 56 53
49 120 -17 164 -45 30 -63 29 -105 -7z"/>
<path d="M2313 1650 c-65 -39 -73 -112 -19 -166 46 -46 96 -47 137 -3 43 46
40 96 -7 149 -41 45 -64 49 -111 20z"/>
<path d="M2815 1654 c-44 -22 -65 -54 -65 -97 0 -31 7 -46 34 -73 45 -45 95
-47 137 -5 24 25 29 37 29 81 0 41 -5 56 -25 75 -13 14 -31 25 -39 25 -8 0
-20 2 -28 5 -7 3 -26 -2 -43 -11z"/>
<path d="M3056 1651 c-83 -55 -86 -144 -6 -186 46 -24 78 -19 116 19 28 28 34
41 34 78 0 46 -19 78 -57 97 -31 16 -54 14 -87 -8z"/>
<path d="M3303 1654 c-40 -20 -67 -74 -59 -119 14 -74 111 -110 170 -64 56 44
55 109 -1 165 -37 37 -62 41 -110 18z"/>
<path d="M1794 1626 c-38 -38 -44 -77 -19 -126 17 -33 71 -55 114 -45 87 19
104 137 27 185 -49 30 -82 26 -122 -14z"/>
<path d="M2548 1637 c-86 -73 -47 -188 65 -187 54 1 97 51 97 113 0 81 -100
127 -162 74z"/>
<path d="M334 1420 c-78 -31 -69 -174 11 -194 32 -8 109 24 124 52 26 48 0
106 -59 137 -32 17 -45 18 -76 5z"/>
<path d="M573 1410 c-54 -33 -67 -78 -37 -130 20 -33 63 -60 97 -60 35 0 75
35 88 79 14 47 -6 93 -51 116 -38 20 -58 19 -97 -5z"/>
<path d="M2314 1404 c-58 -28 -74 -120 -30 -171 20 -23 32 -28 69 -28 82 0
137 78 102 145 -16 32 -68 70 -95 70 -8 0 -29 -7 -46 -16z"/>
<path d="M1565 1392 c-38 -18 -65 -54 -65 -87 0 -22 52 -77 87 -91 64 -27 133
24 133 98 0 78 -76 117 -155 80z"/>
<path d="M1788 1380 c-27 -28 -30 -36 -25 -76 7 -64 37 -94 96 -94 101 1 146
97 77 166 -47 47 -104 48 -148 4z"/>
<path d="M2039 1381 c-64 -65 -20 -171 71 -171 92 0 136 108 69 171 -43 41
-99 40 -140 0z"/>
<path d="M2539 1382 c-59 -53 -38 -150 37 -171 70 -19 138 33 138 107 0 26 -8
41 -32 63 -44 40 -99 40 -143 1z"/>
<path d="M2801 1396 c-32 -18 -50 -53 -51 -97 0 -74 84 -113 160 -74 57 29 61
132 7 170 -26 18 -84 19 -116 1z"/>
<path d="M3024 1376 c-51 -51 -39 -127 26 -161 79 -41 150 9 150 106 0 58 -34
89 -96 89 -39 0 -51 -5 -80 -34z"/>
<path d="M615 1182 c-51 -11 -95 -65 -95 -117 0 -43 50 -85 100 -85 52 0 76
13 96 52 21 40 12 87 -24 120 -31 29 -49 36 -77 30z"/>
<path d="M309 1151 c-38 -38 -41 -106 -6 -139 51 -48 111 -48 152 0 37 44 34
91 -9 134 -45 45 -95 47 -137 5z"/>
<path d="M1824 1160 c-32 -13 -64 -59 -64 -92 0 -94 106 -143 170 -79 58 58
47 129 -24 162 -46 21 -52 21 -82 9z"/>
<path d="M2058 1153 c-56 -35 -66 -117 -19 -164 24 -23 38 -29 74 -29 98 0
136 108 62 178 -39 36 -75 41 -117 15z"/>
<path d="M564 921 c-39 -23 -58 -69 -50 -116 9 -45 39 -65 99 -65 61 0 97 31
97 85 0 95 -71 142 -146 96z"/>
<path d="M328 914 c-34 -18 -48 -43 -48 -86 0 -43 24 -76 66 -94 29 -12 39
-12 68 0 89 37 89 153 -1 187 -33 12 -53 11 -85 -7z"/>
<path d="M1573 901 c-47 -22 -63 -45 -63 -91 0 -44 56 -100 99 -100 63 0 111
44 111 102 0 33 -36 87 -66 98 -33 13 -32 13 -81 -9z"/>
<path d="M1818 904 c-15 -8 -35 -28 -43 -44 -24 -46 -19 -78 19 -116 55 -55
125 -43 162 27 21 41 10 81 -32 119 -38 33 -65 37 -106 14z"/>
<path d="M322 673 c-20 -8 -42 -59 -42 -98 0 -51 44 -95 95 -95 51 0 105 53
105 103 0 65 -91 117 -158 90z"/>
<path d="M549 654 c-20 -21 -24 -36 -24 -86 0 -72 16 -88 86 -88 64 0 99 34
99 97 0 90 -103 139 -161 77z"/>
<path d="M1324 656 c-69 -30 -83 -94 -33 -150 53 -61 120 -58 159 7 36 58 16
126 -41 146 -40 14 -47 13 -85 -3z"/>
<path d="M1543 640 c-18 -11 -35 -31 -39 -46 -14 -57 54 -134 120 -134 19 0
39 11 62 34 45 45 47 95 5 137 -36 36 -98 40 -148 9z"/>
<path d="M334 430 c-33 -13 -54 -50 -54 -93 0 -52 15 -76 57 -93 97 -41 187
74 117 149 -39 43 -78 54 -120 37z"/>
<path d="M1297 396 c-47 -43 -48 -106 -2 -152 34 -34 106 -34 140 0 47 47 39
137 -14 166 -36 19 -96 12 -124 -14z"/>
</g>
</svg>
